 <svg  version="1.0" xmlns="http://www.w3.org/2000/svg"  width="300.000000pt" height="300.000000pt" viewBox="0 0 300.000000 300.000000"  preserveAspectRatio="xMidYMid meet">  <g transform="translate(0.000000,300.000000) scale(0.100000,-0.100000)" fill="#ffffff" stroke="none"> <path d="M1500 2007 c-121 -21 -278 -62 -290 -76 -3 -4 -30 -17 -60 -31 -30 -14 -56 -28 -58 -32 -2 -5 -9 -8 -15 -8 -7 0 -27 -14 -45 -31 -17 -16 -37 -27 -42 -24 -6 3 -10 0 -10 -8 0 -25 -72 -55 -150 -60 -69 -6 -173 -22 -292 -47 -39 -8 -132 -47 -200 -85 -10 -5 -18 -19 -18 -30 0 -12 -3 -16 -8 -8 -4 6 -20 -36 -36 -95 -15 -59 -34 -124 -42 -145 -21 -57 -18 -102 10 -134 l24 -28 1151 0 c633 0 1151 -3 1151 -8 0 -8 34 10 62 32 9 7 20 27 23 45 4 17 19 69 33 116 14 47 27 88 28 93 1 4 3 10 4 15 1 4 3 16 4 27 0 11 6 19 11 18 6 -1 10 24 9 58 -1 51 -5 64 -28 88 -15 16 -33 28 -39 28 -7 -1 -40 7 -74 17 -44 13 -60 22 -56 32 7 19 -21 60 -54 78 -72 38 -175 86 -187 86 -7 0 -16 3 -19 7 -18 17 -155 58 -282 84 -27 5 -75 15 -105 21 -64 13 -334 17 -400 5z m374 -32 c199 -26 371 -80 545 -170 142 -74 143 -70 -15 -83 -255 -22 -418 -31 -582 -33 -89 -1 -165 -5 -167 -9 -7 -12 346 -21 529 -14 114 4 202 3 264 -6 51 -6 96 -10 98 -7 3 3 -30 12 -73 21 l-78 16 70 -5 c84 -5 212 -37 233 -59 24 -24 18 -66 -37 -255 -28 -96 -51 -175 -51 -175 0 -1 -527 -1 -1171 0 -1257 1 -1188 -2 -1189 50 0 12 18 84 39 160 37 129 42 142 80 175 65 58 207 95 456 119 115 12 121 14 155 45 57 53 185 132 268 163 186 72 411 96 626 67z"/> <path d="M1630 1952 c8 -5 31 -13 50 -17 19 -4 38 -13 42 -19 5 -8 11 -7 20 2 20 20 94 12 268 -30 47 -11 91 -20 98 -21 6 0 12 -3 12 -6 0 -3 11 -7 23 -7 13 -1 44 -14 68 -30 l44 -28 -70 -12 c-96 -16 -805 -37 -805 -23 0 3 -12 5 -26 3 -24 -2 -25 -1 -9 16 39 44 121 71 280 95 72 11 85 15 85 27 0 8 -26 9 -87 5 -85 -6 -190 -34 -262 -71 -36 -19 -111 -84 -111 -96 0 -16 278 -22 548 -11 389 16 562 32 562 52 0 30 -293 136 -436 158 -100 15 -313 25 -294 13z"/> <path d="M1370 1555 c-11 -35 -12 -35 -69 -35 -31 0 -65 -6 -74 -13 -22 -15 -69 -141 -61 -162 5 -12 24 -15 90 -15 96 0 86 -10 138 131 18 52 37 102 41 112 6 14 2 17 -23 17 -26 0 -32 -5 -42 -35z m-30 -81 c0 -4 -8 -28 -17 -55 -17 -47 -19 -49 -55 -49 -43 0 -45 6 -22 67 16 40 19 43 55 43 22 0 39 -3 39 -6z"/> <path d="M500 1572 c-100 -4 -109 -7 -130 -58 -35 -80 -26 -94 56 -94 47 0 52 -6 31 -34 -11 -15 -25 -17 -75 -14 -45 2 -63 -1 -67 -10 -13 -34 -6 -37 81 -32 80 5 89 7 107 32 11 14 20 43 21 65 l1 38 -55 5 c-42 4 -54 9 -52 20 8 34 25 42 85 38 54 -3 60 -1 68 19 10 28 8 29 -71 25z"/> <path d="M1109 1522 c-54 -2 -70 -7 -86 -25 -25 -28 -55 -110 -51 -139 3 -21 10 -23 71 -28 58 -4 70 -2 78 12 14 27 12 28 -46 28 -56 0 -62 4 -46 29 6 10 23 12 60 9 43 -4 53 -2 62 13 11 21 11 21 -54 19 -42 -1 -48 1 -45 17 3 15 14 19 65 21 51 2 62 6 66 22 6 25 5 26 -74 22z"/> <path d="M1588 1523 c-21 -3 -36 -19 -63 -64 -35 -56 -62 -79 -51 -41 3 9 9 36 15 60 9 42 9 42 -20 42 -35 0 -36 -1 -43 -107 l-6 -83 34 0 c32 0 38 5 76 68 l42 67 -7 -67 -7 -68 34 0 c31 0 38 7 96 94 34 51 62 96 62 98 0 3 -14 3 -30 0 -25 -4 -36 -15 -63 -63 -17 -32 -35 -59 -38 -59 -4 0 -4 29 -1 65 2 36 3 64 1 64 -2 -1 -16 -4 -31 -6z"/> <path d="M554 1407 c-23 -61 -45 -120 -49 -130 -7 -16 -3 -18 25 -15 29 3 34 8 48 51 l15 47 58 0 c50 0 60 3 78 26 26 32 46 97 38 118 -5 13 -23 16 -89 16 l-83 0 -41 -113z m156 64 c0 -4 -5 -22 -11 -40 -10 -28 -15 -31 -50 -31 -44 0 -44 -1 -25 45 13 31 19 35 50 35 20 0 36 -4 36 -9z"/> <path d="M828 1510 c-21 -13 -73 -144 -65 -164 5 -13 22 -16 81 -16 70 0 86 7 86 36 0 2 -25 4 -56 4 -48 0 -55 2 -52 18 3 14 14 17 65 15 l62 -1 15 46 c25 71 24 72 -51 72 -38 0 -75 -5 -85 -10z m100 -47 c-2 -13 -15 -19 -46 -21 -23 -2 -42 1 -42 5 0 19 25 33 58 33 26 0 33 -4 30 -17z"/> <path d="M1776 1504 c-3 -9 -6 -18 -6 -20 0 -2 27 -4 61 -4 50 0 60 -3 57 -16 -2 -12 -18 -16 -65 -18 -34 -1 -68 -8 -77 -15 -19 -16 -40 -77 -31 -91 9 -14 98 -13 113 2 9 9 12 9 12 0 0 -7 12 -12 28 -12 25 0 29 6 55 80 16 45 26 87 23 95 -8 22 -161 21 -170 -1z m84 -115 c-8 -14 -21 -19 -50 -19 -40 0 -46 5 -32 27 7 11 69 22 85 15 4 -2 2 -12 -3 -23z"/> <path d="M2008 1509 c-21 -12 -64 -140 -54 -164 5 -15 16 -17 61 -13 39 3 55 1 55 -7 0 -27 -29 -37 -84 -31 -50 7 -54 6 -59 -16 -4 -12 -5 -23 -4 -23 12 -6 169 13 177 21 6 6 30 63 54 127 l44 117 -87 0 c-47 0 -94 -5 -103 -11z m112 -37 c0 -5 -7 -29 -16 -55 -15 -45 -17 -47 -55 -47 -44 0 -46 5 -23 67 16 40 19 43 55 43 22 0 39 -4 39 -8z"/> <path d="M2238 1503 c-22 -25 -62 -139 -55 -158 5 -12 24 -15 86 -15 92 0 96 3 131 103 28 80 23 87 -70 87 -61 0 -80 -4 -92 -17z m109 -50 c-14 -71 -24 -83 -67 -83 -22 0 -40 4 -40 9 0 5 9 29 20 55 19 42 24 46 57 46 33 0 35 -2 30 -27z"/> <path d="M2432 1428 c-18 -51 -32 -96 -32 -99 0 -3 12 -4 28 -1 24 3 31 12 53 75 22 64 28 72 53 75 54 7 57 -1 30 -69 -31 -80 -30 -86 4 -81 25 3 31 12 56 83 16 43 26 86 22 94 -7 19 -96 21 -114 3 -9 -9 -12 -9 -12 0 0 7 -13 12 -28 12 -27 0 -30 -5 -60 -92z"/> <path d="M1480 1058 c0 -4 -7 -8 -15 -8 -23 0 -30 -28 -11 -49 9 -10 13 -20 10 -24 -3 -3 -1 -14 5 -24 8 -14 10 -14 11 -3 0 8 3 25 6 36 4 16 0 23 -18 27 -37 10 -6 30 40 25 27 -2 38 0 35 8 -5 14 -63 25 -63 12z"/> <path d="M570 1041 c-16 -17 -23 -71 -9 -71 5 0 6 -6 3 -14 -3 -8 0 -17 7 -22 7 -4 10 -3 5 4 -3 6 1 15 9 20 15 8 15 10 1 21 -22 18 -20 37 4 54 15 10 17 16 8 19 -7 3 -20 -3 -28 -11z"/> <path d="M778 1035 c-43 -57 0 -133 66 -119 17 3 33 10 34 15 2 5 7 7 11 5 8 -5 12 10 13 57 2 63 -87 94 -124 42z m91 -4 c18 -11 19 -65 1 -85 -13 -17 -47 -21 -67 -8 -24 15 -33 58 -17 81 16 22 58 28 83 12z"/> <path d="M810 1005 c-18 -21 -5 -47 22 -43 26 3 37 36 16 49 -18 12 -24 11 -38 -6z"/> <path d="M1236 1044 c-19 -19 -20 -82 -2 -106 21 -28 82 -24 101 6 33 50 -5 139 -40 93 -13 -18 -14 -17 -20 2 -8 25 -18 26 -39 5z m32 -41 c-3 -32 0 -38 17 -38 17 0 20 6 17 38 -3 28 0 37 12 37 12 0 16 -11 16 -45 0 -53 -26 -75 -66 -56 -20 9 -24 18 -24 56 0 34 4 45 16 45 12 0 15 -9 12 -37z"/> <path d="M1837 1048 c-17 -6 -29 -19 -33 -36 -3 -15 -7 -31 -8 -37 -1 -5 7 -19 18 -32 15 -17 30 -23 63 -23 37 0 44 4 57 28 18 34 11 70 -18 94 -24 20 -39 21 -79 6z m79 -33 c18 -28 11 -60 -17 -76 -26 -14 -56 -3 -75 27 -15 22 -15 26 0 49 22 34 69 34 92 0z"/> <path d="M1854 1006 c-24 -18 -11 -48 18 -44 14 2 24 11 26 24 4 26 -20 37 -44 20z"/> <path d="M2306 1040 c-14 -15 -17 -28 -13 -56 7 -44 15 -53 27 -34 6 10 4 20 -6 31 -18 20 -9 46 18 55 27 8 37 -5 15 -21 -17 -12 -17 -14 3 -28 24 -17 19 -40 -13 -55 l-22 -11 23 0 c12 -1 22 4 22 10 0 5 5 7 12 3 7 -4 8 -3 4 4 -4 7 -3 12 3 12 9 0 9 7 -4 69 -5 28 -4 27 -30 34 -12 3 -27 -2 -39 -13z"/> <path d="M620 1033 c0 -13 -6 -23 -12 -23 -8 -1 -6 -6 5 -14 23 -18 21 -40 -5 -60 -21 -15 -21 -16 -3 -14 33 5 47 47 30 93 -10 28 -14 33 -15 18z"/> <path d="M1017 1044 c-4 -4 -7 -31 -7 -60 0 -46 3 -54 23 -60 39 -13 46 -13 69 7 l23 19 -21 18 c-11 10 -25 31 -31 47 -9 29 -40 44 -56 29z m40 -43 c-4 -36 -3 -40 19 -43 39 -5 33 -23 -8 -25 l-38 -2 0 54 c0 44 3 55 16 55 14 0 16 -7 11 -39z"/> <path d="M1646 1034 c-18 -48 -1 -114 30 -114 24 0 39 91 20 118 -12 17 -43 15 -50 -4z m41 -46 c-3 -74 -27 -78 -27 -4 0 43 3 56 15 56 11 0 14 -11 12 -52z"/> <path d="M2056 1042 c-3 -5 -8 -26 -11 -48 -8 -50 14 -85 42 -68 12 8 25 8 40 1 42 -19 71 36 51 95 -10 29 -35 37 -56 16 -9 -9 -15 -9 -24 0 -14 14 -35 16 -42 4z m47 -32 c32 -37 39 -38 35 -2 -2 18 2 27 11 27 10 0 14 -14 14 -48 0 -26 -2 -50 -5 -53 -3 -3 -20 9 -37 26 l-31 32 0 -31 c0 -21 -5 -31 -15 -31 -12 0 -15 13 -15 55 0 30 4 55 9 55 5 0 21 -13 34 -30z"/> <path d="M1528 1013 c-13 -3 -18 -15 -18 -43 0 -22 -5 -40 -12 -43 -9 -3 -8 -4 1 -3 8 1 17 8 21 16 4 8 14 30 23 48 9 17 13 31 9 31 -4 -1 -15 -3 -24 -6z"/> </g> </svg> 